<svg viewBox="0 0 21 18" xmlns="http://www.w3.org/2000/svg">
<path fill="currentColor" fill-rule="evenodd" clip-rule="evenodd" d="M18.0267 4.65767C18.0347 4.84854 18.0374 5.0394 18.0374 5.2316C18.0374 11.0136 13.9064 17.6912 6.35191 17.6912C4.10208 17.6867 1.90647 17.0003 0.0546875 15.7225C0.375021 15.7572 0.702028 15.7839 1.03437 15.7839C2.95771 15.7839 4.73022 15.0805 6.13568 13.902C4.33915 13.8753 2.82157 12.6006 2.29836 10.8668C2.91414 10.9945 3.55194 10.9679 4.15495 10.7894C2.27433 10.389 0.85819 8.62046 0.85819 6.49692V6.44353C1.4121 6.7652 2.04609 6.96407 2.72013 6.99076C1.61631 6.20194 0.891558 4.85788 0.891558 3.3403C0.891558 2.54214 1.0931 1.78802 1.44814 1.13801C3.47425 3.79144 6.5014 5.53458 9.91428 5.7161C9.84368 5.38847 9.80833 5.05422 9.80884 4.71907C9.80884 2.29922 11.6481 0.339844 13.9171 0.339844C15.0983 0.339844 16.1648 0.868394 16.9136 1.71861C17.841 1.52769 18.7257 1.169 19.5243 0.660177C19.2314 1.65771 18.5895 2.51661 17.7157 3.08003C18.5336 2.97803 19.3301 2.74692 20.0755 2.39532C19.5314 3.26441 18.8378 4.03035 18.0267 4.65767Z" />
</svg>
