<svg viewBox="0 0 21 15" xmlns="http://www.w3.org/2000/svg">
<path fill="currentColor" fill-rule="evenodd" clip-rule="evenodd" d="M17.8419 0.546968C18.2644 0.661617 18.6496 0.884792 18.9591 1.19433C19.2686 1.50387 19.4918 1.889 19.6065 2.31147C20.0349 3.8771 20.0189 7.14317 20.0189 7.14317C20.0189 7.14317 20.0189 10.3919 19.6065 11.9588C19.4918 12.3813 19.2686 12.7664 18.9591 13.076C18.6496 13.3855 18.2644 13.6087 17.8419 13.7233C16.275 14.1358 10.0085 14.1358 10.0085 14.1358C10.0085 14.1358 3.75796 14.1358 2.17498 13.706C1.75251 13.5913 1.36738 13.3682 1.05784 13.0586C0.7483 12.7491 0.525125 12.364 0.410476 11.9415C-0.00195309 10.3919 -0.00195312 7.12715 -0.00195312 7.12715C-0.00195312 7.12715 -0.00195309 3.8771 0.410476 2.31147C0.526932 1.88821 0.750272 1.50201 1.05904 1.18997C1.36781 0.877927 1.75164 0.650528 2.17364 0.529617C3.74194 0.117188 10.0085 0.117188 10.0085 0.117188C10.0085 0.117188 16.275 0.117188 17.8419 0.546968ZM13.2238 7.01236L8.01305 10.0128V4.01057L13.2238 7.01236Z" />
</svg>
