<svg xmlns="http://www.w3.org/2000/svg" id="Layer_2" data-name="Layer 2" viewBox="0 0 678.71 418.62" height="100%" width="100%">
    <g id="Layer_1-2">
        <g>
            <path fill="black"
                  d="M678.71,164.95c-3.36,0-6.46-.01-9.56,0-29.74.13-59.48.22-89.22.46-2.91.02-4.35-.79-5.57-3.55-8.32-18.83-22.65-32.01-40.9-40.58-39.83-18.71-79.91-18.9-118.91,2.03-29.04,15.58-45.2,41.15-51.47,73.19-11.91,60.88,27,120.17,87.53,131.94,40.49,7.87,75.82-4.13,106.07-31.62,5.16-4.68,9.52-10.24,14.36-15.27.92-.96,2.41-1.94,3.64-1.94,32.25-.09,64.49-.06,96.74-.04.37,0,.73.13,1.6.29-1.15,3.36-2.19,6.65-3.39,9.89-14.57,39.04-38.26,71.08-72.93,94.6-26.24,17.8-55.32,28.18-86.66,32.26-41.71,5.43-82.08-.03-120.64-16.75-48.63-21.08-85.16-54.84-106-104.28-9.23-21.89-13.58-44.87-14.37-68.57-.68-20.47,1.61-40.64,5.86-60.63.13-.6.23-1.21.42-2.21h-35.9v248.33c-2.1-1.68-3.43-2.7-4.71-3.78-28.12-23.64-56.22-47.3-84.4-70.88-2.2-1.84-3.14-3.67-3.13-6.63.1-53.87.08-107.74.08-161.6v-5.5h-52.26v246.18H6.15V116.94h141.36V19.81h91.37v96.76c2.02.11,3.34.24,4.65.24,15.87,0,31.75-.09,47.62.05,3,.03,4.64-.93,6.2-3.48,27.08-44.44,65.55-74.96,115.6-88.56,80.17-21.79,152.32-5.59,213.58,51.66,25.23,23.57,41.74,53.07,51.7,86.15.17.58.25,1.18.49,2.31Z"/>
            <path fill="#e60012"
                  d="M56.71,109.81c-39.74.6-67.76-39.81-52.47-75.53C20.45-3.6,72.17-12.06,99.53,18.86c13.76,15.55,17.84,33.67,11.1,53.36-7.07,20.66-22.31,32.49-43.49,36.92-1.46.31-2.95.56-4.44.65-1.99.11-3.99.03-5.99.03Z"/>
        </g>
    </g>
</svg>
